<?xml version="1.0" encoding="UTF-8" standalone="no"?>
<!-- Created with Inkscape (http://www.inkscape.org/) -->

<svg
   width="155.35704mm"
   height="24.041725mm"
   viewBox="0 0 155.35704 24.041725"
   version="1.1"
   id="svg5"
   xml:space="preserve"
   xmlns:inkscape="http://www.inkscape.org/namespaces/inkscape"
   xmlns:sodipodi="http://sodipodi.sourceforge.net/DTD/sodipodi-0.dtd"
   xmlns="http://www.w3.org/2000/svg"
   xmlns:svg="http://www.w3.org/2000/svg"><sodipodi:namedview
     id="namedview7"
     pagecolor="#ffffff"
     bordercolor="#000000"
     borderopacity="0.25"
     inkscape:showpageshadow="2"
     inkscape:pageopacity="0.0"
     inkscape:pagecheckerboard="0"
     inkscape:deskcolor="#d1d1d1"
     inkscape:document-units="mm"
     showgrid="false" /><defs
     id="defs2" /><g
     inkscape:label="Layer 1"
     inkscape:groupmode="layer"
     id="layer1"
     transform="translate(-32.015435,-126.946)"><text
       xml:space="preserve"
       style="font-style:normal;font-variant:normal;font-weight:bold;font-stretch:normal;font-size:23.8869px;font-family:sans-serif;-inkscape-font-specification:'sans-serif Bold';text-align:center;text-anchor:middle;fill:#15364b;stroke-width:0;stroke-linecap:square;stroke-linejoin:round;paint-order:fill markers stroke"
       x="158.59077"
       y="115.27301"
       id="text356"
       transform="scale(0.76504153,1.3071186)"
       inkscape:export-filename="text356.svg"
       inkscape:export-xdpi="10"
       inkscape:export-ydpi="10"><tspan
         sodipodi:role="line"
         id="tspan354"
         style="font-style:normal;font-variant:normal;font-weight:bold;font-stretch:normal;font-family:sans-serif;-inkscape-font-specification:'sans-serif Bold';fill:#ffffff;stroke-width:0"
         x="158.59077"
         y="115.27301">RRBS Pilathara</tspan></text><path
       fill="currentColor"
       d="m 52.207957,128.1909 a 0.82522867,0.82522867 0 0 0 -0.824404,-0.78395 h -2.351077 a 0.82522867,0.82522867 0 0 0 -0.821928,0.75096 l -1.340997,15.11408 v -5.99779 h -1.650455 v -2.47569 a 0.82687914,0.82687914 0 0 0 -1.282407,-0.68658 l -4.744238,3.16227 h -0.575185 v -2.47569 a 0.82687914,0.82687914 0 0 0 -1.282404,-0.68658 l -4.951372,3.30091 a 0.82522867,0.82522867 0 0 0 -0.368055,0.68661 v 9.90274 a 0.82522867,0.82522867 0 0 0 0.825231,0.82522 h 19.821991 c 0.456352,0 0.783143,-0.29037 0.783143,-0.74599 0,-0.0711 -1.237843,-19.89052 -1.237843,-19.89052 m -16.066378,10.73377 v 2.47568 h -1.650458 v -2.47568 z m 4.126145,0 v 2.47568 h -1.650458 v -2.47568 z m 4.126141,0 v 2.47568 H 42.74341 v -2.47568 z m -8.252286,4.12615 v 2.47569 h -1.650458 v -2.47569 z m 4.126145,0 v 2.47569 h -1.650458 v -2.47569 z m 4.126141,0 v 2.47569 H 42.74341 v -2.47569 z"
       id="path777"
       style="stroke-width:0.825228" /></g></svg>
